<?xml version="1.0" encoding="utf-8"?>
<!-- Generator: Adobe Illustrator 26.5.0, SVG Export Plug-In . SVG Version: 6.00 Build 0)  -->
<svg version="1.1" id="Layer_1" xmlns="http://www.w3.org/2000/svg" xmlns:xlink="http://www.w3.org/1999/xlink" x="0px" y="0px"
	 width="128px" height="60px" viewBox="0 0 128 60" style="enable-background:new 0 0 128 60;" xml:space="preserve">
<style type="text/css">
	.st0{fill:#FFFFFF;}
</style>
<g>
	<g>
		<path class="st0" d="M41.4,9.4c0.6-0.3,2.2-0.6,2-0.6V7.3H26.8v1.4c0.4,0.1,1.9,0.4,2.6,0.9c0.7,0.6,1.1,1.9,1.1,4.1v24.6
			c0,0-8.3,4.3-17.3-2.6h-2.6l1.6,8.9h31.1V43c-0.3-0.1-1.4-0.1-1.9-0.3c-1.1-0.6-1.6-1.7-1.6-3.3V12.6C39.8,11,40.3,9.9,41.4,9.4z"
			/>
		<path class="st0" d="M89.8,9.4c-0.6-0.3-2.2-0.6-2-0.6V7.3h16.6v1.4c-0.4,0.1-1.9,0.4-2.6,0.9c-0.7,0.6-1.1,1.9-1.1,4.1v24.6
			c0,0,8.3,4.3,17.3-2.6h2.6l-1.6,8.9H87.9V43c0.3-0.1,1.4-0.1,1.9-0.3c1.1-0.6,1.6-1.7,1.6-3.3V12.6C91.4,11,90.9,9.9,89.8,9.4z"/>
		<path class="st0" d="M82.9,2.5C83.3,2.3,84,2.1,84.9,2V0.4H68.3v1.5c0.9,0.1,1.6,0.3,2.1,0.5c1,0.6,1.5,1.6,1.5,3.2v13.3H58.7V5.7
			c0-1.6,0.5-2.7,1.6-3.2c0.4-0.2,1.1-0.4,2-0.5V0.4H46.4v1.7c0.6,0.1,1.1,0.3,1.4,0.4c0.9,0.6,1.4,1.6,1.4,3.2v33.6
			c0,1.6-0.5,2.7-1.5,3.3c-0.3,0.2-0.7,0.3-1.2,0.4v1.6h15.9v-1.5c-0.8-0.1-1.5-0.2-1.8-0.4c-1.1-0.6-1.7-1.7-1.7-3.3V24.8h13.2
			v14.5c0,1.6-0.5,2.7-1.5,3.2c-0.4,0.2-1.1,0.4-2,0.5v1.5h16.5v-1.5c-0.8-0.1-1.4-0.3-1.8-0.5c-1.1-0.6-1.6-1.7-1.6-3.3V5.7
			C81.5,4.1,82,3.1,82.9,2.5z"/>
	</g>
	<g>
		<path class="st0" d="M5,59.6c-3.8,0-4.5-2.5-4.5-4.9c0-2.4,0.7-4.9,4.5-4.9c3.3,0,4.4,1.9,4.4,4.1H6.6C6.4,52.6,6,52.1,5,52.1
			c-1.4,0-1.6,1.2-1.6,2.6s0.1,2.6,1.6,2.6c1,0,1.3-0.5,1.5-1.9h2.8C9.4,57.8,8.3,59.6,5,59.6z"/>
		<path class="st0" d="M16.4,59.6c-3.9,0-4.6-2.5-4.6-4.9c0-2.4,0.7-4.9,4.6-4.9c3.9,0,4.6,2.5,4.6,4.9C21,57.1,20.3,59.6,16.4,59.6
			z M16.4,52.1c-1.6,0-1.7,1.2-1.7,2.6s0.1,2.6,1.7,2.6c1.6,0,1.7-1.2,1.7-2.6C18.1,53.3,18.1,52.1,16.4,52.1z"/>
		<path class="st0" d="M29.7,59.5l-2.9-5.1v5.1h-2.9V50h3.3l2.8,5.2V50h2.9v9.5H29.7z"/>
		<path class="st0" d="M40,59.6c-3.2,0-4.4-1.3-4.4-3.6h2.8c0,1,0.4,1.5,1.5,1.5c1.1,0,1.2-0.5,1.2-0.9c0-1.4-5.2-0.3-5.3-3.6
			c-0.1-1.7,0.9-3.2,4-3.2c3.1,0,4,1.5,4,3.4H41c0-0.9-0.3-1.3-1.3-1.3c-0.9,0-1.1,0.4-1.1,0.9c0.2,1.2,5.3,0.1,5.3,3.6
			C43.9,57.9,43,59.6,40,59.6z"/>
		<path class="st0" d="M50.8,52.2v7.2h-2.8v-7.2h-2.2V50H53v2.3H50.8z"/>
		<path class="st0" d="M60.5,59.5l-2.1-3.5v3.5h-2.8V50h3.7c3.7,0,4,2,4,3.3c0,1.3-0.6,2.4-2,2.7l2.7,3.5H60.5z M59.2,52.2h-0.8v2.1
			h0.8c1,0,1.3-0.4,1.3-1C60.4,52.6,60.2,52.2,59.2,52.2z"/>
		<path class="st0" d="M70.3,59.6c-3.1,0-4.3-1.4-4.3-4.3V50h2.9v5.3c0,1.5,0.3,2,1.4,2c1.1,0,1.4-0.4,1.4-2V50h2.9v5.3
			C74.6,58.2,73.4,59.6,70.3,59.6z"/>
		<path class="st0" d="M81.8,59.6c-3.8,0-4.5-2.5-4.5-4.9c0-2.4,0.7-4.9,4.5-4.9c3.3,0,4.4,1.9,4.4,4.1h-2.8
			c-0.1-1.4-0.6-1.8-1.5-1.8c-1.4,0-1.6,1.2-1.6,2.6s0.1,2.6,1.6,2.6c1,0,1.3-0.5,1.5-1.9h2.8C86.1,57.8,85,59.6,81.8,59.6z"/>
		<path class="st0" d="M93.1,52.2v7.2h-2.8v-7.2H88V50h7.3v2.3H93.1z"/>
		<path class="st0" d="M101.5,59.6c-3.9,0-4.6-2.5-4.6-4.9c0-2.4,0.7-4.9,4.6-4.9c3.9,0,4.6,2.5,4.6,4.9
			C106.1,57.1,105.4,59.6,101.5,59.6z M101.5,52.1c-1.6,0-1.7,1.2-1.7,2.6s0.1,2.6,1.7,2.6c1.6,0,1.7-1.2,1.7-2.6
			C103.2,53.3,103.1,52.1,101.5,52.1z"/>
		<path class="st0" d="M113.9,59.5l-2.1-3.5v3.5H109V50h3.7c3.7,0,4,2,4,3.3c0,1.3-0.6,2.4-2,2.7l2.7,3.5H113.9z M112.6,52.2h-0.8
			v2.1h0.8c1,0,1.3-0.4,1.3-1C113.8,52.6,113.6,52.2,112.6,52.2z"/>
		<path class="st0" d="M123.5,59.6c-3.2,0-4.4-1.3-4.4-3.6h2.8c0,1,0.4,1.5,1.5,1.5s1.2-0.5,1.2-0.9c0-1.4-5.2-0.3-5.3-3.6
			c-0.1-1.7,0.9-3.2,4-3.2c3.1,0,4,1.5,4,3.4h-2.8c0-0.9-0.3-1.3-1.3-1.3c-0.9,0-1.1,0.4-1.1,0.9c0.2,1.2,5.3,0.1,5.3,3.6
			C127.4,57.9,126.5,59.6,123.5,59.6z"/>
	</g>
</g>
</svg>
